# xmcd CD database file
#
# Track frame offsets:
#	150
#	15487
#	30290
#	51642
#	65610
#	76782
#	88632
#	105035
#	118670
#	133100
#
# Disc length: 2050 seconds
#
# Revision: 2
# Processed by: cddbd v1.5.2PL0 Copyright (c) Steve Scherf et al.
# Submitted via: CDex 1.70beta2
#
DISCID=7308000a
DTITLE=Roger Ballard - A Little Piece Of Heavan
DYEAR=1993
DGENRE=Blues
TTITLE0=That's the Bad Thing About a Girl
TTITLE1=A Little Piece of Heaven
TTITLE2=Way Beyond the Blue
TTITLE3=Prove Me Wrong
TTITLE4=Home Of the Blues
TTITLE5=Two Steps in the Right Direction
TTITLE6=You Can't Get There From Here
TTITLE7=Go on and Cry
TTITLE8=Slow Movin Storm
TTITLE9=Dark Side Of Love
EXTD=43 YEAR: 1993
EXTT0=
EXTT1=
EXTT2=
EXTT3=
EXTT4=
EXTT5=
EXTT6=
EXTT7=
EXTT8=
EXTT9=
PLAYORDER=
